<svg height='300px' width='300px'  fill="#000000" xmlns="http://www.w3.org/2000/svg" xmlns:xlink="http://www.w3.org/1999/xlink" viewBox="0 0 54 54" version="1.1" x="0px" y="0px"><title>Profile_4</title><desc>Created with Sketch.</desc><g stroke="none" stroke-width="1" fill="none" fill-rule="evenodd"><path d="M54,27 C54,12.1126909 41.8873091,0 27,0 C12.1126909,0 0,12.1126909 0,27 C0,34.8633818 3.38138182,41.9511273 8.76370909,46.8896727 L8.73818182,46.9122545 L9.61396364,47.6505818 C9.67090909,47.6986909 9.73276364,47.7379636 9.78970909,47.7850909 C10.2550909,48.1709455 10.7371636,48.5371636 11.2280727,48.8916 C11.3871273,49.0064727 11.5461818,49.1213455 11.7081818,49.2332727 C12.2324727,49.5945818 12.7705091,49.9372364 13.3203273,50.2622182 C13.4401091,50.3329091 13.5608727,50.4016364 13.6816364,50.4703636 C14.2834909,50.8130182 14.8981091,51.1360364 15.5274545,51.4325455 C15.5736,51.4541455 15.6207273,51.4737818 15.6668727,51.4953818 C17.7178909,52.4487273 19.9073455,53.1487636 22.1969455,53.5621091 C22.2568364,53.5729091 22.3167273,53.5837091 22.3776,53.5945091 C23.0884364,53.7172364 23.8071273,53.8154182 24.5346545,53.8812 C24.6230182,53.8890545 24.7113818,53.8939636 24.8007273,53.9018182 C25.5253091,53.9617091 26.2577455,54 27,54 C27.7353818,54 28.4609455,53.9617091 29.1816,53.9037818 C29.2729091,53.8959273 29.3642182,53.8910182 29.4555273,53.8831636 C30.1771636,53.8173818 30.8899636,53.7221455 31.5939273,53.6013818 C31.6548,53.5905818 31.7166545,53.5797818 31.7775273,53.568 C34.0327636,53.1634909 36.1908,52.4791636 38.2153091,51.5503636 C38.2899273,51.516 38.3655273,51.4836 38.4401455,51.4482545 C39.0459273,51.1635273 39.6379636,50.8562182 40.2182182,50.5292727 C40.3625455,50.4477818 40.5058909,50.3653091 40.6492364,50.2808727 C41.1774545,49.9696364 41.6968364,49.6446545 42.2014909,49.2990545 C42.3831273,49.1753455 42.5608364,49.0447636 42.7405091,48.9151636 C43.1715273,48.6049091 43.5946909,48.2848364 44.0060727,47.9500364 C44.0973818,47.8764 44.1955636,47.8125818 44.2849091,47.7369818 L45.1832727,46.9868727 L45.1567636,46.9642909 C50.5862182,42.0237818 54,34.9036364 54,27 Z M1.96363636,27 C1.96363636,13.1946545 13.1946545,1.96363636 27,1.96363636 C40.8053455,1.96363636 52.0363636,13.1946545 52.0363636,27 C52.0363636,34.4392364 48.7718182,41.1273818 43.6035273,45.7164 C43.3148727,45.5170909 43.0242545,45.3384 42.7267636,45.1891636 L34.4137091,41.0331273 C33.6675273,40.6600364 33.2041091,39.9099273 33.2041091,39.0763636 L33.2041091,36.1731273 C33.3965455,35.9355273 33.5997818,35.6665091 33.8098909,35.3709818 C34.8859636,33.8511273 35.7489818,32.1604364 36.3783273,30.3411273 C37.6222909,29.7500727 38.4254182,28.5110182 38.4254182,27.1119273 L38.4254182,23.6313818 C38.4254182,22.7801455 38.1132,21.9544364 37.5545455,21.3054545 L37.5545455,16.7233091 C37.6056,16.2137455 37.7862545,13.338 35.7057818,10.9659273 C33.8962909,8.90018182 30.9675273,7.85454545 27,7.85454545 C23.0324727,7.85454545 20.1037091,8.90018182 18.2942182,10.9649455 C16.2137455,13.3370182 16.3944,16.2127636 16.4454545,16.7223273 L16.4454545,21.3044727 C15.8877818,21.9534545 15.5745818,22.7791636 15.5745818,23.6304 L15.5745818,27.1109455 C15.5745818,28.1919273 16.0596,29.2002545 16.8902182,29.8806545 C17.6854909,32.9959636 19.3221818,35.3542909 19.9269818,36.1534909 L19.9269818,38.9948727 C19.9269818,39.7960364 19.4900727,40.5324 18.7861091,40.9172727 L11.0228727,45.1518545 C10.7754545,45.2863636 10.53,45.4434545 10.2845455,45.6192 C5.18007273,41.0321455 1.96363636,34.3852364 1.96363636,27 Z M41.6870182,47.2568727 C41.3433818,47.5062545 40.9938545,47.7477818 40.6394182,47.9785091 C40.4764364,48.0845455 40.3144364,48.1905818 40.1485091,48.2936727 C39.6850909,48.5803636 39.2138182,48.8533091 38.7327273,49.1085818 C38.6266909,49.1645455 38.5196727,49.2175636 38.4126545,49.2725455 C37.3071273,49.8390545 36.1633091,50.3260364 34.9880727,50.7217091 C34.9468364,50.7354545 34.9056,50.7501818 34.8633818,50.7639273 C34.2477818,50.9681455 33.6243273,51.1497818 32.994,51.3058909 C32.9920364,51.3058909 32.9900727,51.3068727 32.9881091,51.3068727 C32.3518909,51.4639636 31.7078182,51.5945455 31.0598182,51.7015636 C31.0421455,51.7045091 31.0244727,51.7084364 31.0068,51.7113818 C30.3970909,51.8105455 29.7824727,51.8822182 29.1658909,51.9362182 C29.0569091,51.9460364 28.9479273,51.9529091 28.8379636,51.9607636 C28.2282545,52.0069091 27.6156,52.0363636 27,52.0363636 C26.3775273,52.0363636 25.7570182,52.0059273 25.1394545,51.9597818 C25.0324364,51.9519273 24.9254182,51.9450545 24.8193818,51.9352364 C24.1969091,51.8802545 23.5773818,51.8066182 22.9637455,51.7064727 C22.9362545,51.7015636 22.9087636,51.6966545 22.8812727,51.6917455 C21.5833091,51.4747636 20.3059636,51.1556727 19.062,50.7384 C19.0237091,50.7256364 18.9844364,50.7118909 18.9461455,50.6991273 C18.3285818,50.4890182 17.7178909,50.2563273 17.118,49.9990909 C17.1140727,49.9971273 17.1091636,49.9951636 17.1052364,49.9932 C16.5377455,49.7487273 15.9810545,49.4777455 15.4312364,49.1920364 C15.3595636,49.1547273 15.2869091,49.1193818 15.2162182,49.0810909 C14.7145091,48.8130545 14.2236,48.5234182 13.7395636,48.2210182 C13.5962182,48.1306909 13.4538545,48.0393818 13.3124727,47.9470909 C12.8667273,47.6554909 12.4268727,47.3521091 11.9988,47.0310545 C11.9546182,46.9976727 11.9124,46.9623273 11.8682182,46.9289455 C11.8996364,46.9112727 11.9310545,46.8936 11.9624727,46.8759273 L19.7257091,42.6413455 C21.0609818,41.9128364 21.8906182,40.5157091 21.8906182,38.9948727 L21.8896364,35.4583636 L21.6638182,35.1854182 C21.6422182,35.1608727 19.5195273,32.5786909 18.7173818,29.0824364 L18.6280364,28.6936364 L18.2932364,28.4766545 C17.8209818,28.1713091 17.5382182,27.6607636 17.5382182,27.1099636 L17.5382182,23.6294182 C17.5382182,23.1728727 17.7316364,22.7477455 18.0850909,22.4286545 L18.4090909,22.1360727 L18.4090909,16.6673455 L18.4002545,16.5387273 C18.3973091,16.5151636 18.1076727,14.1538909 19.7708727,12.258 C21.1905818,10.6399636 23.6235273,9.81818182 27,9.81818182 C30.3637091,9.81818182 32.7888,10.6330909 34.2124364,12.2393455 C35.8736727,14.1156 35.6017091,16.5210545 35.5997455,16.5406909 L35.5909091,22.1380364 L35.9149091,22.4306182 C36.2673818,22.7487273 36.4617818,23.1748364 36.4617818,23.6313818 L36.4617818,27.1119273 C36.4617818,27.8119636 35.9856,28.4472 35.3022545,28.6582909 L34.8142909,28.8085091 L34.6572,29.2945091 C34.0779273,31.0941818 33.2532,32.7564 32.2065818,34.2350182 C31.9493455,34.5982909 31.6989818,34.9203273 31.4839636,35.1667636 L31.2404727,35.4446182 L31.2404727,39.0763636 C31.2404727,40.6590545 32.1201818,42.0826909 33.5359636,42.7896 L41.8490182,46.9456364 C41.9020364,46.9721455 41.9540727,46.9996364 42.0061091,47.0271273 C41.9010545,47.1066545 41.7930545,47.1802909 41.6870182,47.2568727 Z" fill="#000000" fill-rule="nonzero"></path></g></svg>